<?xml version="1.0" encoding="UTF-8"?>
<svg width="720px" height="720px" viewBox="0 0 720 720" version="1.1" xmlns="http://www.w3.org/2000/svg" xmlns:xlink="http://www.w3.org/1999/xlink">
    <!-- Generator: Sketch 55.2 (78181) - https://sketchapp.com -->
    <title>gradient</title>
    <desc>Created with Sketch.</desc>
    <defs>
        <radialGradient cx="50%" cy="83.5993523%" fx="50%" fy="83.5993523%" r="133.263561%" gradientTransform="translate(0.500000,0.835994),scale(1.000000,0.639138),rotate(-90.000000),translate(-0.500000,-0.835994)" id="radialGradient-1">
            <stop stop-color="#000000" stop-opacity="0.8" offset="0%"></stop>
            <stop stop-color="#5C17D9" offset="100%"></stop>
        </radialGradient>
        <path d="M178,0 C59.3333333,137.297421 0,259.527977 0,366.691667 C0,484.446132 89,557 178,557 C267,557 356,484.446132 356,366.691667 C356,259.527977 296.666667,137.297421 178,0 Z" id="path-2"></path>
        <linearGradient x1="50%" y1="100%" x2="50%" y2="11.2089618%" id="linearGradient-4">
            <stop stop-color="#000000" stop-opacity="0.8" offset="0%"></stop>
            <stop stop-color="#9340FF" stop-opacity="0.465909091" offset="100%"></stop>
        </linearGradient>
        <radialGradient cx="238.939479%" cy="3.86718667%" fx="238.939479%" fy="3.86718667%" r="222.786659%" gradientTransform="translate(2.389395,0.038672),scale(1.000000,0.919118),rotate(90.000000),translate(-2.389395,-0.038672)" id="radialGradient-5">
            <stop stop-color="#5D17D9" offset="0%"></stop>
            <stop stop-color="#1695C5" offset="100%"></stop>
        </radialGradient>
        <radialGradient cx="239.372477%" cy="4.67450929%" fx="239.372477%" fy="4.67450929%" r="221.642307%" gradientTransform="translate(2.393725,0.046745),scale(1.000000,0.919118),rotate(90.000000),translate(-2.393725,-0.046745)" id="radialGradient-6">
            <stop stop-color="#5D17D9" offset="0%"></stop>
            <stop stop-color="#1695C5" offset="100%"></stop>
        </radialGradient>
        <radialGradient cx="-138.10481%" cy="4.56932994%" fx="-138.10481%" fy="4.56932994%" r="221.923756%" gradientTransform="translate(-1.381048,0.045693),scale(1.000000,0.919118),rotate(90.000000),translate(1.381048,-0.045693)" id="radialGradient-7">
            <stop stop-color="#5D17D9" offset="0%"></stop>
            <stop stop-color="#1695C5" offset="100%"></stop>
        </radialGradient>
        <radialGradient cx="-141.321366%" cy="0%" fx="-141.321366%" fy="0%" r="226.415796%" gradientTransform="translate(-1.413214,0.000000),scale(1.000000,0.919118),rotate(90.000000),translate(1.413214,-0.000000)" id="radialGradient-8">
            <stop stop-color="#5D17D9" offset="0%"></stop>
            <stop stop-color="#1695C5" offset="100%"></stop>
        </radialGradient>
        <radialGradient cx="50%" cy="53.4412588%" fx="50%" fy="53.4412588%" r="77.4683442%" gradientTransform="translate(0.500000,0.534413),scale(1.000000,0.652482),rotate(90.000000),translate(-0.500000,-0.534413)" id="radialGradient-9">
            <stop stop-color="#5E17D9" offset="0%"></stop>
            <stop stop-color="#1695C5" offset="100%"></stop>
        </radialGradient>
        <path d="M299,0.5 C176.333333,139.522883 115,263.289549 115,371.8 C115,491.034324 207,564.5 299,564.5 C391,564.5 483,491.034324 483,371.8 C483,263.289549 421.666667,139.522883 299,0.5 Z" id="path-10"></path>
        <radialGradient cx="50%" cy="-13.0120677%" fx="50%" fy="-13.0120677%" r="113.012068%" gradientTransform="translate(0.500000,-0.130121),scale(0.485380,1.000000),rotate(90.000000),translate(-0.500000,0.130121)" id="radialGradient-12">
            <stop stop-color="#5D17D9" offset="0%"></stop>
            <stop stop-color="#1695C5" offset="100%"></stop>
        </radialGradient>
        <radialGradient cx="50%" cy="64.1614681%" fx="50%" fy="64.1614681%" r="64.1614681%" id="radialGradient-13">
            <stop stop-color="#5D17D9" offset="0%"></stop>
            <stop stop-color="#1695C5" offset="100%"></stop>
        </radialGradient>
        <circle id="path-14" cx="69" cy="69" r="69"></circle>
        <radialGradient cx="50%" cy="50%" fx="50%" fy="50%" r="50%" id="radialGradient-16">
            <stop stop-color="#817C8A" offset="0%"></stop>
            <stop stop-color="#551AC0" offset="100%"></stop>
        </radialGradient>
    </defs>
    <g id="gradient" stroke="none" stroke-width="1" fill="none" fill-rule="evenodd">
        <g id="blue-new" transform="translate(61.000000, 78.000000)">
            <g id="drop" transform="translate(121.000000, 4.000000)">
                <mask id="mask-3" fill="white">
                    <use xlink:href="#path-2"></use>
                </mask>
                <use id="drop-fill" fill="url(#radialGradient-1)" fill-rule="nonzero" xlink:href="#path-2"></use>
                <path d="M-90,409.94993 C-60.2222222,409.94993 -30.4444444,373.299954 -0.666666667,300 C21.5547271,354.699419 124.4,519.899861 178,300 C231.6,519.899861 334.221394,355.250512 356.666667,300 C401.333333,409.94993 446,409.94993 446,409.94993 C446,409.94993 431.119051,565 178,565 C9.25396621,565 -80.0793671,513.316643 -90,409.94993 Z" id="wave-center" fill="url(#linearGradient-4)" fill-rule="nonzero" mask="url(#mask-3)"></path>
            </g>
            <g id="case">
                <g id="wings" transform="translate(0.000000, 300.000000)" fill-rule="nonzero" stroke-linecap="round" stroke-linejoin="round" stroke-width="12">
                    <path d="M125,0.00825701249 C46.7514198,30.3836699 8.87265528,129.51518 0,132.553099 C37.7207427,153.269172 103.950022,71.4078729 121.997956,129.284529 C111.300004,59.0848224 124.623992,-0.80852439 125,0.00825701249 Z" id="wing-left" stroke="url(#radialGradient-6)" fill="url(#radialGradient-5)"></path>
                    <path d="M474,0.00825701249 C552.24858,30.3836699 590.127345,129.51518 599,132.553099 C561.279257,153.269172 495.049978,71.4078729 477.002044,129.284529 C487.699996,59.0848224 474.376008,-0.80852439 474,0.00825701249 Z" id="wing-right" stroke="url(#radialGradient-8)" fill="url(#radialGradient-7)"></path>
                </g>
                <mask id="mask-11" fill="white">
                    <use xlink:href="#path-10"></use>
                </mask>
                <use id="drop-rim" stroke="url(#radialGradient-9)" stroke-width="20" stroke-linecap="round" fill-rule="nonzero" xlink:href="#path-10"></use>
                <path d="M41,422.906146 C132.2,481.510244 189.2,452.208195 212,335 C246.2,510.812292 348.8,510.812292 383,335 C405.8,452.208195 462.8,481.510244 554,422.906146 C503.742378,530.302049 418.242378,584 297.5,584 C176.757622,584 91.2576217,530.302049 41,422.906146 Z" id="wave-around" fill="url(#radialGradient-12)" fill-rule="nonzero" mask="url(#mask-11)"></path>
            </g>
            <g id="ajnas" transform="translate(230.000000, 144.000000)">
                <g id="ajna-⅔" transform="translate(69.000000, 69.000000) scale(1, -1) translate(-69.000000, -69.000000) ">
                    <mask id="mask-15" fill="white">
                        <use xlink:href="#path-14"></use>
                    </mask>
                    <use id="white" fill="url(#radialGradient-13)" xlink:href="#path-14"></use>
                    <circle id="iris" fill="url(#radialGradient-16)" mask="url(#mask-15)" cx="69" cy="87" r="48"></circle>
                    <circle id="pupil" fill="#000000" mask="url(#mask-15)" cx="69" cy="87" r="25"></circle>
                    <circle id="dot" fill="#FFFFFF" mask="url(#mask-15)" cx="69" cy="87" r="6"></circle>
                </g>
            </g>
        </g>
    </g>
</svg>