<?xml version="1.0" encoding="UTF-8"?>
<svg width="638px" height="661px" viewBox="0 0 638 661" version="1.1" xmlns="http://www.w3.org/2000/svg" xmlns:xlink="http://www.w3.org/1999/xlink">
    <!-- Generator: Sketch 55.2 (78181) - https://sketchapp.com -->
    <title>Artboard</title>
    <desc>Created with Sketch.</desc>
    <defs>
        <path d="M176,0 C58.6666667,142.473805 0,269.312694 0,380.516667 C0,502.710708 88,578 176,578 C264,578 352,502.710708 352,380.516667 C352,269.312694 293.333333,142.473805 176,0 Z" id="path-1"></path>
    </defs>
    <g id="Artboard" stroke="none" stroke-width="1" fill="none" fill-rule="evenodd">
        <g id="b&amp;w" transform="translate(25.000000, 50.000000)">
            <g id="wings" transform="translate(0.000000, 306.000000)" fill="#FFFFFF" fill-rule="nonzero" stroke="#000000" stroke-linecap="round" stroke-linejoin="round" stroke-width="15">
                <path d="M110.002094,1.0014273 C31.7522029,33.8572489 -6.1271961,141.083683 -15,144.369674 C22.7213745,166.777389 88.9517635,78.2314241 107,140.834198 C96.3018685,64.9020926 109.626079,0.117948806 110.002094,1.0014273 Z" id="wing-left"></path>
                <path d="M476,1.00997635 C554.249891,33.8657979 592.12929,141.092232 601.002094,144.378223 C563.280719,166.785938 497.05033,78.2399731 479.002094,140.842747 C489.700225,64.9106417 476.376014,0.126497861 476,1.00997635 Z" id="wing-right"></path>
            </g>
            <g id="drop-body" transform="translate(116.000000, 0.000000)">
                <mask id="mask-2" fill="white">
                    <use xlink:href="#path-1"></use>
                </mask>
                <path stroke="#000000" stroke-width="30" d="M187.578875,-9.53570392 C306.922873,135.379581 367,265.267923 367,380.516667 C367,442.452653 345.544035,496.492499 307.778509,535.512961 C272.244687,572.227559 224.469467,593 176,593 C127.530533,593 79.7553129,572.227559 44.221491,535.512961 C6.45596454,496.492499 -15,442.452653 -15,380.516667 C-15,265.267923 45.0771272,135.379581 164.421125,-9.53570392 L176,-23.5955313 L187.578875,-9.53570392 Z"></path>
                <g id="ocean" mask="url(#mask-2)" fill="#FFFFFF" fill-rule="nonzero" stroke="#000000" stroke-width="15">
                    <g transform="translate(-101.000000, 307.000000)">
                        <path d="M8.29102866,124.873839 C21.5061866,226.38558 110.020715,277.268898 277,277.268898 C337.383208,277.268898 387.340463,268.328744 427.815281,251.79215 C461.78394,237.913746 488.176766,219.072497 507.969643,196.514066 C523.299668,179.042058 533.831525,160.34759 540.438913,141.683153 C542.709315,135.269759 544.340713,129.328954 545.437418,124.017078 C544.803527,123.814963 544.154162,123.592912 543.489772,123.350006 C536.327914,120.731577 528.521399,116.121075 520.278262,109.088986 C500.06558,91.8458677 480.144201,62.7527336 461.451887,19.2599103 C454.827419,33.2008464 446.296115,48.4889922 437.068754,62.4196078 C420.631142,87.2355916 403.049025,106.4887 385.30771,117.285529 C362.839873,130.958777 340.566536,130.654259 321.046127,113.702926 C303.842212,98.7632135 289.158534,71.1093398 276.998988,29.5985755 C264.835691,71.0993386 250.138236,98.7275671 232.910261,113.629242 C213.370577,130.530476 191.082121,130.77691 168.59827,117.059037 C150.854533,106.233208 133.269718,86.9701542 116.834649,62.1713158 C107.659618,48.3271322 99.1764238,33.1500849 92.591601,19.3301667 C65.4308935,83.860004 37.7936376,119.30368 8.29102866,124.873839 Z M554.107495,110.652153 C554.093175,110.652443 554.057445,110.652153 554,110.652153 L554.107495,110.652153 Z" id="wave-center"></path>
                        <path d="M18.6790277,140.920901 C72.7575664,233.401611 158.549513,279.43098 277,279.43098 C395.450487,279.43098 481.242434,233.401611 535.320972,140.920901 C453.298823,181.637191 396.87272,155.132392 369.432805,63.4051895 C349.510261,133.756401 315.674147,174.5 277,174.5 C238.325853,174.5 204.489739,133.756401 184.567195,63.4051895 C157.12728,155.132392 100.701177,181.637191 18.6790277,140.920901 Z" id="wave-around"></path>
                    </g>
                </g>
            </g>
            <g id="ajna-1/2" transform="translate(223.000000, 150.000000)">
                <circle id="white" fill="#000000" cx="69" cy="69" r="69"></circle>
                <circle id="iris" fill="#FFFFFF" cx="69" cy="69" r="46"></circle>
                <circle id="pupil" fill="#000000" cx="69" cy="69" r="24"></circle>
                <circle id="dot" fill="#FFFFFF" cx="69" cy="69" r="6"></circle>
            </g>
        </g>
    </g>
</svg>