<?xml version="1.0" encoding="UTF-8"?>
<svg width="597px" height="607px" viewBox="0 0 597 607" version="1.1" xmlns="http://www.w3.org/2000/svg" xmlns:xlink="http://www.w3.org/1999/xlink">
    <!-- Generator: Sketch 55.2 (78181) - https://sketchapp.com -->
    <title>white</title>
    <desc>Created with Sketch.</desc>
    <defs>
        <path d="M178,6.03961325e-14 C59.3333333,141.980816 0,268.380816 0,379.2 C0,500.971225 89,576 178,576 C267,576 356,500.971225 356,379.2 C356,268.380816 296.666667,141.980816 178,6.03961325e-14 Z" id="path-1"></path>
    </defs>
    <g id="Page-1" stroke="none" stroke-width="1" fill="none" fill-rule="evenodd">
        <g id="outline" transform="translate(-61.000000, -53.000000)">
            <g id="white" transform="translate(61.000000, 72.000000)">
                <g id="wings" transform="translate(0.000000, 306.000000)" fill="#FFFFFF" fill-rule="nonzero" stroke="#FFFFFF" stroke-width="10">
                    <path d="M114.445219,118.407904 C115.100812,126.115364 115.96406,133.831903 117.048899,141.531762 L126.804327,139.449121 C123.995256,129.705474 119.85082,122.734901 114.445219,118.407904 Z M8.22793393,142.433008 C6.22183993,141.919604 4.34211297,141.133373 2.55359095,140.070933 L1.73646337,149.058458 C4.03416946,148.207516 5.76760738,146.31815 8.22793393,142.433008 Z" id="wing-left"></path>
                    <path d="M588.77416,142.441557 C591.234486,146.326699 592.967924,148.216065 595.26563,149.067007 L594.448503,140.079482 C592.659981,141.141922 590.780254,141.928153 588.77416,142.441557 Z M482.556875,118.416453 C477.151273,122.74345 473.006838,129.714023 470.197766,139.45767 L479.953195,141.540311 C481.038034,133.840452 481.901282,126.123913 482.556875,118.416453 Z" id="wing-right"></path>
                </g>
                <g id="drop-body" transform="translate(120.000000, 0.000000)">
                    <mask id="mask-2" fill="white">
                        <use xlink:href="#path-1"></use>
                    </mask>
                    <use id="drop" stroke="#FFFFFF" stroke-width="24" stroke-linecap="round" fill-rule="nonzero" xlink:href="#path-1"></use>
                    <g id="ocean" mask="url(#mask-2)" fill-rule="nonzero" stroke="#FFFFFF">
                        <g transform="translate(-74.000000, 307.000000)">
                            <path d="M8.2075501,124.868913 C20.2519375,226.695413 101.14335,277.5 254,277.5 C309.21255,277.5 354.863642,268.583468 391.839308,252.095182 C422.874814,238.255749 447.002659,219.456492 465.115774,196.924921 C479.173924,179.437471 488.843594,160.704005 494.91382,141.989069 C497.029905,135.465027 498.543411,129.424907 499.553682,124.032149 C499.55716,124.013581 499.56063,123.995035 499.564091,123.976512 C499.034799,123.789151 498.494772,123.585953 497.944311,123.366298 C491.275514,120.7052 484.041202,116.041972 476.430874,108.956095 C458.097809,91.8864186 440.053294,63.2745387 423.102365,20.6417639 C417.137386,34.1476243 409.592433,48.8094605 401.455935,62.21637 C386.370608,87.0732071 370.233252,106.360018 353.889025,117.216101 C332.948359,131.125209 311.928743,130.811556 293.7388,113.571263 C278.247106,98.8883502 265.010926,72.0185757 253.998889,31.8311019 C242.983147,72.0079197 229.734394,98.8521568 214.220626,113.498072 C196.01137,130.688687 174.978215,130.942505 154.024075,116.988969 C137.678153,106.104083 121.538399,86.8074034 106.455476,61.9678565 C98.3709988,48.6538087 90.8736272,34.1094487 84.9461885,20.7273422 C60.3252643,84.095371 35.2782175,119.027306 8.2075501,124.868913 Z" id="wave-center" stroke-width="15" fill="none"></path>
                            <path d="M11.8989126,135.370868 C61.3239588,233.278278 141.301003,282 252.5,282 C363.698997,282 443.676041,233.278278 493.101087,135.370868 C414.282522,181.250108 361.258322,154.051563 336.716029,55.8127989 C319.052906,129.449667 287.97151,172.03655 252.5,172.03655 C217.02849,172.03655 185.947094,129.449667 168.283971,55.8127989 C143.741683,154.051561 90.7174819,181.25011 11.8989126,135.370868 Z" id="wave-around" stroke-width="10" fill="#FFFFFF"></path>
                        </g>
                    </g>
                </g>
                <path d="M299,288 C260.892352,288 230,257.107648 230,219 C230,180.892352 260.892352,150 299,150 C337.107648,150 368,180.892352 368,219 C368,257.107648 337.107648,288 299,288 Z M299,265 C324.405098,265 345,244.405098 345,219 C345,193.594902 324.405098,173 299,173 C273.594902,173 253,193.594902 253,219 C253,244.405098 273.594902,265 299,265 Z M299,243 C285.745166,243 275,232.254834 275,219 C275,205.745166 285.745166,195 299,195 C312.254834,195 323,205.745166 323,219 C323,232.254834 312.254834,243 299,243 Z M299,225 C302.313708,225 305,222.313708 305,219 C305,215.686292 302.313708,213 299,213 C295.686292,213 293,215.686292 293,219 C293,222.313708 295.686292,225 299,225 Z" id="Shape" fill="#FFFFFF"></path>
            </g>
        </g>
    </g>
</svg>