<?xml version="1.0" encoding="UTF-8"?>
<svg width="597px" height="607px" viewBox="0 0 597 607" version="1.1" xmlns="http://www.w3.org/2000/svg" xmlns:xlink="http://www.w3.org/1999/xlink">
    <!-- Generator: Sketch 55.2 (78181) - https://sketchapp.com -->
    <title>black</title>
    <desc>Created with Sketch.</desc>
    <defs>
        <path d="M178,6.03961325e-14 C59.3333333,141.980816 0,268.380816 0,379.2 C0,500.971225 89,576 178,576 C267,576 356,500.971225 356,379.2 C356,268.380816 296.666667,141.980816 178,6.03961325e-14 Z" id="path-1"></path>
    </defs>
    <g id="Page-1" stroke="none" stroke-width="1" fill="none" fill-rule="evenodd">
        <g id="outline" transform="translate(-61.000000, -53.000000)">
            <g id="black" transform="translate(61.000000, 72.000000)">
                <g id="wings" transform="translate(0.000000, 306.000000)" fill="#000000" fill-rule="nonzero" stroke="#000000" stroke-width="15">
                    <path d="M111.552997,113.558199 C112.246038,122.991602 113.244368,132.447844 114.573348,141.880544 L129.206491,138.756583 C125.548479,126.068267 119.577923,117.694012 111.552997,113.558199 Z M12.2894967,140.558989 C9.13444885,140.300875 6.35689843,139.422392 3.83038643,137.921562 L2.60469505,151.40285 C6.24154861,150.055962 8.31064394,147.306688 12.2227344,140.672322 C12.2449373,140.634669 12.2671906,140.596893 12.2894967,140.558989 Z" id="wing-left"></path>
                    <path d="M584.712597,140.567538 C584.734903,140.605442 584.757157,140.643218 584.779359,140.680871 C588.69145,147.315237 590.760545,150.064511 594.397399,151.411399 L593.171707,137.930111 C590.645195,139.430941 587.867645,140.309424 584.712597,140.567538 Z M485.449097,113.566749 C477.424171,117.702561 471.453615,126.076816 467.795603,138.765132 L482.428746,141.889093 C483.757726,132.456393 484.756056,123.000151 485.449097,113.566749 Z" id="wing-right"></path>
                </g>
                <g id="drop-body" transform="translate(120.000000, 0.000000)">
                    <mask id="mask-2" fill="white">
                        <use xlink:href="#path-1"></use>
                    </mask>
                    <use id="drop" stroke="#000000" stroke-width="24" stroke-linecap="round" fill-rule="nonzero" xlink:href="#path-1"></use>
                    <g id="ocean" mask="url(#mask-2)" fill-rule="nonzero" stroke="#000000" stroke-width="15">
                        <g transform="translate(-74.000000, 307.000000)">
                            <path d="M8.2075501,124.868913 C20.2519375,226.695413 101.14335,277.5 254,277.5 C309.21255,277.5 354.863642,268.583468 391.839308,252.095182 C422.874814,238.255749 447.002659,219.456492 465.115774,196.924921 C479.173924,179.437471 488.843594,160.704005 494.91382,141.989069 C497.029905,135.465027 498.543411,129.424907 499.553682,124.032149 C499.55716,124.013581 499.56063,123.995035 499.564091,123.976512 C499.034799,123.789151 498.494772,123.585953 497.944311,123.366298 C491.275514,120.7052 484.041202,116.041972 476.430874,108.956095 C458.097809,91.8864186 440.053294,63.2745387 423.102365,20.6417639 C417.137386,34.1476243 409.592433,48.8094605 401.455935,62.21637 C386.370608,87.0732071 370.233252,106.360018 353.889025,117.216101 C332.948359,131.125209 311.928743,130.811556 293.7388,113.571263 C278.247106,98.8883502 265.010926,72.0185757 253.998889,31.8311019 C242.983147,72.0079197 229.734394,98.8521568 214.220626,113.498072 C196.01137,130.688687 174.978215,130.942505 154.024075,116.988969 C137.678153,106.104083 121.538399,86.8074034 106.455476,61.9678565 C98.3709988,48.6538087 90.8736272,34.1094487 84.9461885,20.7273422 C60.3252643,84.095371 35.2782175,119.027306 8.2075501,124.868913 Z" id="wave-center" fill="none"></path>
                            <path d="M17.9700655,141.635207 C67.2196122,233.759553 145.086547,279.5 252.5,279.5 C359.913453,279.5 437.780388,233.759553 487.029935,141.635207 C449.771853,161.60728 418.017159,165.033204 392.046381,151.144078 C367.242425,137.878967 348.966483,109.358095 336.764811,65.8371342 C318.497619,134.722949 287.880519,174.53655 252.5,174.53655 C217.119481,174.53655 186.502381,134.722949 168.235189,65.8371342 C156.033517,109.358095 137.757575,137.878967 112.953619,151.144078 C86.982841,165.033204 55.2281474,161.60728 17.9700655,141.635207 Z" id="wave-around" fill="#000000"></path>
                        </g>
                    </g>
                </g>
                <path d="M299,288 C260.892352,288 230,257.107648 230,219 C230,180.892352 260.892352,150 299,150 C337.107648,150 368,180.892352 368,219 C368,257.107648 337.107648,288 299,288 Z M299,265 C324.405098,265 345,244.405098 345,219 C345,193.594902 324.405098,173 299,173 C273.594902,173 253,193.594902 253,219 C253,244.405098 273.594902,265 299,265 Z M299,243 C285.745166,243 275,232.254834 275,219 C275,205.745166 285.745166,195 299,195 C312.254834,195 323,205.745166 323,219 C323,232.254834 312.254834,243 299,243 Z M299,225 C302.313708,225 305,222.313708 305,219 C305,215.686292 302.313708,213 299,213 C295.686292,213 293,215.686292 293,219 C293,222.313708 295.686292,225 299,225 Z" id="Shape" fill="#000000"></path>
            </g>
        </g>
    </g>
</svg>