<?xml version="1.0" encoding="UTF-8"?>
<svg width="928px" height="928px" viewBox="0 0 928 928" version="1.1" xmlns="http://www.w3.org/2000/svg" xmlns:xlink="http://www.w3.org/1999/xlink">
    <title>Summon</title>
    <defs>
        <linearGradient x1="8.00035489%" y1="26.1434512%" x2="83.6762602%" y2="80.2372742%" id="linearGradient-1">
            <stop stop-color="#0DF7EB" offset="0%"></stop>
            <stop stop-color="#E7ED39" offset="60.2545892%"></stop>
            <stop stop-color="#FFFFFF" offset="61.8389423%"></stop>
            <stop stop-color="#DDBC18" offset="64.995095%"></stop>
            <stop stop-color="#EB800B" offset="100%"></stop>
        </linearGradient>
        <linearGradient x1="100%" y1="75.182102%" x2="14.4971501%" y2="29.6973385%" id="linearGradient-2">
            <stop stop-color="#EB800B" offset="0%"></stop>
            <stop stop-color="#EB800B" offset="0%"></stop>
            <stop stop-color="#DDBC18" offset="32.1651005%"></stop>
            <stop stop-color="#FFFFFF" offset="38.1610577%"></stop>
            <stop stop-color="#E7ED39" offset="39.7454108%"></stop>
            <stop stop-color="#0DF7EB" offset="100%"></stop>
        </linearGradient>
    </defs>
    <g id="Summon" stroke="none" stroke-width="1" fill="none" fill-rule="evenodd">
        <g id="Group" transform="translate(430.752026, 421.537517) scale(-1, 1) rotate(-147.000000) translate(-430.752026, -421.537517) translate(70.566793, 130.537517)" fill-rule="nonzero">
            <path d="M111.487467,0 C106.989083,0 102.487643,0.21948852 97.9984271,0.663388106 C26.1786094,7.76082171 -15.3244838,69.8646057 5.28343231,139.372089 C10.284523,156.242753 18.4959073,171.991269 29.0741385,186.078261 C29.0649706,185.966666 29.0634426,185.858791 29.0542747,185.748436 C31.1170527,188.538308 33.5862744,191.225265 36.4649956,193.731189 C53.6578682,208.688621 78.8848791,211.022194 92.6886838,199.524203 C106.492489,188.026212 103.629047,166.685553 86.4392305,151.728121 C84.2847734,161.10829 74.5255416,168.385515 62.3429275,168.385515 C48.5941302,168.385515 37.3603941,159.264494 37.3603941,148.106247 C37.3603941,145.768955 37.7576698,143.952439 38.6194527,142.005728 C53.3583834,115.106405 83.6063487,94.34108 121.983187,88.536907 C167.865482,81.5981861 212.421486,97.9902322 237.162598,127.366961 C244.215771,143.736688 246.448155,158.075389 245.743755,171.402296 C244.460249,195.720058 232.954531,217.655889 219.551058,242.381592 C200.934105,276.718093 179.799034,316.547541 185.131698,371.602249 C187.095157,443.303192 233.208177,512.588726 314.83765,551.880039 C440.682387,612.454973 603.214013,578.786801 677.874352,476.689897 C752.531636,374.595472 711.051462,242.728776 585.205197,182.153842 C565.188611,172.519485 544.244538,165.278218 522.871102,160.309766 C591.694544,203.208073 615.142982,279.490605 578.917544,343.666334 C578.104657,338.350699 576.870046,333.011504 575.189264,327.674789 C553.919731,260.091697 469.804228,218.473011 386.519949,235.723098 C372.948398,238.529089 360.701608,243.807526 349.061429,249.123162 C403.854924,242.841611 456.234205,269.672737 470.245816,314.18297 C485.265895,361.929454 450.171166,409.922687 391.314762,422.107607 C376.149524,425.250862 360.808567,425.666243 346.14298,423.751771 C334.877156,420.50312 323.831362,416.336912 313.159924,411.199828 C290.664948,400.372646 272.018963,386.305493 257.521453,370.187474 C231.862023,330.372905 226.393369,292.130584 244.966011,253.164136 L244.912532,253.146777 L245.688747,251.715883 C259.13042,226.921983 272.709611,201.956971 274.272738,172.39673 C274.879348,160.929738 273.585146,148.91221 269.910345,136.155677 C269.100514,128.790416 267.60309,121.276361 265.346258,113.668071 C246.026432,48.5028681 178.969339,-0.0346997899 111.485939,0 L111.487467,0 Z" id="Path" fill="url(#linearGradient-1)"></path>
            <path d="M544.258802,69.6022375 C500.550334,69.1605097 460.819263,93.8910129 441.370466,146.810761 C488.504766,105.158202 638.960993,138.842141 720.370466,267.596426 C700.975293,140.991966 617.097566,70.3355308 544.254206,69.6009862 L544.258802,69.6022375 Z" id="Path" fill="url(#linearGradient-2)"></path>
        </g>
    </g>
</svg>